<svg width="869" height="378" xmlns="http://www.w3.org/2000/svg" xmlns:xlink="http://www.w3.org/1999/xlink" overflow="hidden"><defs><clipPath id="clip0"><rect x="0" y="0" width="869" height="378"/></clipPath></defs><g clip-path="url(#clip0)"><rect x="0" y="0" width="869" height="378.145" fill="#FFFFFF"/><path d="M1.00004 160.228C1.00004 150.744 8.686 143.055 18.1671 143.055L155.833 143.055C165.314 143.055 173 150.744 173 160.228L173 228.921C173 238.405 165.314 246.094 155.833 246.094L18.1671 246.094C8.686 246.094 1.00004 238.405 1.00004 228.921Z" stroke="#5B9BD5" stroke-width="1.66603" stroke-miterlimit="8" fill="#FFFFFF" fill-rule="evenodd"/><path d="M23.5 228.588C23.5 223.615 27.5294 219.584 32.5 219.584 37.4705 219.584 41.5 223.615 41.5 228.588 41.5 233.56 37.4705 237.591 32.5 237.591 27.5294 237.591 23.5 233.56 23.5 228.588Z" stroke="#172C51" stroke-width="1.33282" stroke-miterlimit="8" fill="#8FAADC" fill-rule="evenodd"/><text font-family="Times New Roman,Times New Roman_MSFontService,sans-serif" font-weight="400" font-size="11" transform="matrix(1 0 0 1.00038 29.6102 232)">c</text><path d="M23.5 162.562C23.5 157.59 27.5294 153.559 32.5 153.559 37.4705 153.559 41.5 157.59 41.5 162.562 41.5 167.535 37.4705 171.566 32.5 171.566 27.5294 171.566 23.5 167.535 23.5 162.562Z" stroke="#172C51" stroke-width="1.33282" stroke-miterlimit="8" fill="#D9D9D9" fill-rule="evenodd"/><text font-family="Times New Roman,Times New Roman_MSFontService,sans-serif" font-weight="400" font-size="11" transform="matrix(1 0 0 1.00038 29.277 166)">u</text><path d="M54.5 196.575C54.5 191.603 58.5295 187.572 63.5 187.572 68.4705 187.572 72.5 191.603 72.5 196.575 72.5 201.548 68.4705 205.579 63.5 205.579 58.5295 205.579 54.5 201.548 54.5 196.575Z" stroke="#172C51" stroke-width="1.33282" stroke-miterlimit="8" fill="#ED7D31" fill-rule="evenodd"/><text font-family="Times New Roman,Times New Roman_MSFontService,sans-serif" font-weight="400" font-size="11" transform="matrix(1 0 0 1.00038 60.5375 200)">a</text><path d="M97.5 196.575C97.5 191.603 101.306 187.572 106 187.572 110.694 187.572 114.5 191.603 114.5 196.575 114.5 201.548 110.694 205.579 106 205.579 101.306 205.579 97.5 201.548 97.5 196.575Z" stroke="#172C51" stroke-width="1.33282" stroke-miterlimit="8" fill="#ED7D31" fill-rule="evenodd"/><text font-family="Times New Roman,Times New Roman_MSFontService,sans-serif" font-weight="400" font-size="11" transform="matrix(1 0 0 1.00038 102.79 200)">b</text><path d="M129.5 228.588C129.5 223.615 133.306 219.584 138 219.584 142.694 219.584 146.5 223.615 146.5 228.588 146.5 233.56 142.694 237.591 138 237.591 133.306 237.591 129.5 233.56 129.5 228.588Z" stroke="#172C51" stroke-width="1.33282" stroke-miterlimit="8" fill="#D0CECE" fill-rule="evenodd"/><text font-family="Times New Roman,Times New Roman_MSFontService,sans-serif" font-weight="400" font-size="11" transform="matrix(1 0 0 1.00038 134.851 232)">v</text><path d="M129.5 162.562C129.5 157.59 133.306 153.559 138 153.559 142.694 153.559 146.5 157.59 146.5 162.562 146.5 167.535 142.694 171.566 138 171.566 133.306 171.566 129.5 167.535 129.5 162.562Z" stroke="#172C51" stroke-width="1.33282" stroke-miterlimit="8" fill="#8FAADC" fill-rule="evenodd"/><text font-family="Times New Roman,Times New Roman_MSFontService,sans-serif" font-weight="400" font-size="11" transform="matrix(1 0 0 1.00038 133.684 166)">w</text><path d="M38 168.064 56.5617 189.884" stroke="#4472C4" stroke-width="1.99923" stroke-miterlimit="8" fill="none" fill-rule="evenodd"/><path d="M0 0 19.6949 21.8107" stroke="#4472C4" stroke-width="1.99923" stroke-miterlimit="8" fill="none" fill-rule="evenodd" transform="matrix(-1 0 0 1.00038 131.695 168.064)"/><path d="M72 196.075 97.098 196.075" stroke="#4472C4" stroke-width="1.99923" stroke-miterlimit="8" fill="none" fill-rule="evenodd"/><path d="M0 0 0.000104947 48.3042" stroke="#000000" stroke-width="3.33206" stroke-miterlimit="8" stroke-dasharray="3.33206 3.33206" fill="none" fill-rule="evenodd" transform="matrix(1 0 0 -1.00038 138.5 219.889)"/><path d="M41.5 162.562 129.586 162.562" stroke="#000000" stroke-width="3.33206" stroke-miterlimit="8" stroke-dasharray="3.33206 3.33206" fill="none" fill-rule="evenodd"/><path d="M131.695 221.335 112 202.077" stroke="#4472C4" stroke-width="1.99923" stroke-miterlimit="8" fill="none" fill-rule="evenodd"/><path d="M0 0 18.5617 19.2498" stroke="#4472C4" stroke-width="1.99923" stroke-miterlimit="8" fill="none" fill-rule="evenodd" transform="matrix(-1 0 0 1.00038 56.5617 202.077)"/><text font-family="Cambria Math,Cambria Math_MSFontService,sans-serif" font-weight="400" font-size="11" transform="matrix(1 0 0 1.00038 80.217 157)">ğ‘¡</text><text font-family="Cambria Math,Cambria Math_MSFontService,sans-serif" font-weight="400" font-size="8" transform="matrix(1 0 0 1.00038 84.2288 160)">3</text><text font-family="Times New Roman,Times New Roman_MSFontService,sans-serif" font-weight="400" font-size="11" transform="matrix(1 0 0 1.00038 89.1669 157)">?</text><text font-family="Cambria Math,Cambria Math_MSFontService,sans-serif" font-weight="400" font-size="11" transform="matrix(1 0 0 1.00038 141.377 198)">ğ‘¡</text><text font-family="Cambria Math,Cambria Math_MSFontService,sans-serif" font-weight="400" font-size="8" transform="matrix(1 0 0 1.00038 145.389 200)">3</text><text font-family="Times New Roman,Times New Roman_MSFontService,sans-serif" font-weight="400" font-size="11" transform="matrix(1 0 0 1.00038 150.327 198)">?</text><text font-family="Cambria Math,Cambria Math_MSFontService,sans-serif" font-weight="400" font-size="11" transform="matrix(1 0 0 1.00038 78.1424 191)">ğ‘¡</text><text font-family="Cambria Math,Cambria Math_MSFontService,sans-serif" font-weight="400" font-size="8" transform="matrix(1 0 0 1.00038 82.1542 193)">0</text><text font-family="Cambria Math,Cambria Math_MSFontService,sans-serif" font-weight="400" font-size="11" transform="matrix(1 0 0 1.00038 40.0787 184)">ğ‘¡</text><text font-family="Cambria Math,Cambria Math_MSFontService,sans-serif" font-weight="400" font-size="8" transform="matrix(1 0 0 1.00038 44.0905 186)">2</text><text font-family="Cambria Math,Cambria Math_MSFontService,sans-serif" font-weight="400" font-size="11" transform="matrix(1 0 0 1.00038 39.6979 209)">ğ‘¡</text><text font-family="Cambria Math,Cambria Math_MSFontService,sans-serif" font-weight="400" font-size="8" transform="matrix(1 0 0 1.00038 43.4631 211)">1</text><text font-family="Cambria Math,Cambria Math_MSFontService,sans-serif" font-weight="400" font-size="11" transform="matrix(1 0 0 1.00038 111.54 177)">ğ‘¡</text><text font-family="Cambria Math,Cambria Math_MSFontService,sans-serif" font-weight="400" font-size="8" transform="matrix(1 0 0 1.00038 115.306 179)">1</text><text font-family="Cambria Math,Cambria Math_MSFontService,sans-serif" font-weight="400" font-size="11" transform="matrix(1 0 0 1.00038 111.918 217)">ğ‘¡</text><text font-family="Cambria Math,Cambria Math_MSFontService,sans-serif" font-weight="400" font-size="8" transform="matrix(1 0 0 1.00038 115.93 219)">2</text><path d="M93.5 196.575C93.5 189.393 99.0964 183.57 106 183.57 112.904 183.57 118.5 189.393 118.5 196.575 118.5 203.758 112.904 209.58 106 209.58 99.0964 209.58 93.5 203.758 93.5 196.575Z" stroke="#70AD47" stroke-width="1.33282" stroke-miterlimit="8" fill="#70AD47" fill-rule="evenodd" fill-opacity="0"/><path d="M283 63.5246C283 57.1708 288.149 52.0199 294.5 52.0199L395.5 52.0199C401.851 52.0199 407 57.1708 407 63.5246L407 109.542C407 115.896 401.851 121.046 395.5 121.046L294.5 121.046C288.149 121.046 283 115.896 283 109.542Z" stroke="#5B9BD5" stroke-width="1.66603" stroke-miterlimit="8" fill="#FFFFFF" fill-rule="evenodd"/><rect x="291.5" y="60.5233" width="108" height="23.0088" stroke="#172C51" stroke-width="1.33282" stroke-miterlimit="8" fill="#C5E0B4"/><text font-family="Cambria Math,Cambria Math_MSFontService,sans-serif" font-weight="400" font-size="11" transform="matrix(1 0 0 1.00038 324.11 75)">ğ‘¡</text><text font-family="Cambria Math,Cambria Math_MSFontService,sans-serif" font-weight="400" font-size="8" transform="matrix(1 0 0 1.00038 328.122 77)">2</text><text font-family="Cambria Math,Cambria Math_MSFontService,sans-serif" font-weight="400" font-size="11" transform="matrix(1 0 0 1.00038 333.06 75)">:</text><text font-family="Cambria Math,Cambria Math_MSFontService,sans-serif" font-weight="400" font-size="11" transform="matrix(1 0 0 1.00038 337.672 75)">ğ‘¢</text><text font-family="Cambria Math,Cambria Math_MSFontService,sans-serif" font-weight="400" font-size="11" transform="matrix(1 0 0 1.00038 347.068 75)">â†’</text><text font-family="Cambria Math,Cambria Math_MSFontService,sans-serif" font-weight="400" font-size="11" transform="matrix(1 0 0 1.00038 359.023 75)">ğ‘</text><rect x="291.5" y="88.534" width="108" height="23.0088" stroke="#172C51" stroke-width="1.33282" stroke-miterlimit="8" fill="#C5E0B4"/><text font-family="Cambria Math,Cambria Math_MSFontService,sans-serif" font-weight="400" font-size="11" transform="matrix(1 0 0 1.00038 324.35 103)">ğ‘¡</text><text font-family="Cambria Math,Cambria Math_MSFontService,sans-serif" font-weight="400" font-size="8" transform="matrix(1 0 0 1.00038 328.362 106)">2</text><text font-family="Cambria Math,Cambria Math_MSFontService,sans-serif" font-weight="400" font-size="11" transform="matrix(1 0 0 1.00038 333.3 103)">:</text><text font-family="Cambria Math,Cambria Math_MSFontService,sans-serif" font-weight="400" font-size="11" transform="matrix(1 0 0 1.00038 337.912 103)">ğ‘£</text><text font-family="Cambria Math,Cambria Math_MSFontService,sans-serif" font-weight="400" font-size="11" transform="matrix(1 0 0 1.00038 347.015 103)">â†’</text><text font-family="Cambria Math,Cambria Math_MSFontService,sans-serif" font-weight="400" font-size="11" transform="matrix(1 0 0 1.00038 358.97 103)">ğ‘</text><text font-family="Times New Roman,Times New Roman_MSFontService,sans-serif" font-weight="400" font-size="13" transform="matrix(1 0 0 1.00038 28.9745 265)">Graph</text><path d="M283 288.778C283 282.332 288.223 277.106 294.667 277.106L395.333 277.106C401.777 277.106 407 282.332 407 288.778L407 335.462C407 341.908 401.777 347.133 395.333 347.133L294.667 347.133C288.223 347.133 283 341.908 283 335.462Z" stroke="#5B9BD5" stroke-width="1.66603" stroke-miterlimit="8" fill="#FFFFFF" fill-rule="evenodd"/><rect x="291.5" y="285.61" width="108" height="23.0088" stroke="#172C51" stroke-width="1.33282" stroke-miterlimit="8" fill="#C5E0B4"/><text font-family="Cambria Math,Cambria Math_MSFontService,sans-serif" font-weight="400" font-size="11" transform="matrix(1 0 0 1.00038 323.164 301)">ğ‘¡</text><text font-family="Cambria Math,Cambria Math_MSFontService,sans-serif" font-weight="400" font-size="8" transform="matrix(1 0 0 1.00038 327.176 303)">3</text><text font-family="Cambria Math,Cambria Math_MSFontService,sans-serif" font-weight="400" font-size="11" transform="matrix(1 0 0 1.00038 332.114 301)">:</text><text font-family="Cambria Math,Cambria Math_MSFontService,sans-serif" font-weight="400" font-size="11" transform="matrix(1 0 0 1.00038 336.725 301)">ğ‘¢</text><text font-family="Cambria Math,Cambria Math_MSFontService,sans-serif" font-weight="400" font-size="11" transform="matrix(1 0 0 1.00038 346.122 301)">â†’</text><text font-family="Cambria Math,Cambria Math_MSFontService,sans-serif" font-weight="400" font-size="11" transform="matrix(1 0 0 1.00038 358.077 301)">ğ‘¤</text><rect x="291.5" y="314.621" width="108" height="23.0088" stroke="#172C51" stroke-width="1.33282" stroke-miterlimit="8" fill="#C5E0B4"/><text font-family="Cambria Math,Cambria Math_MSFontService,sans-serif" font-weight="400" font-size="11" transform="matrix(1 0 0 1.00038 323.311 329)">ğ‘¡</text><text font-family="Cambria Math,Cambria Math_MSFontService,sans-serif" font-weight="400" font-size="8" transform="matrix(1 0 0 1.00038 327.322 331)">3</text><text font-family="Cambria Math,Cambria Math_MSFontService,sans-serif" font-weight="400" font-size="11" transform="matrix(1 0 0 1.00038 332.26 329)">:</text><text font-family="Cambria Math,Cambria Math_MSFontService,sans-serif" font-weight="400" font-size="11" transform="matrix(1 0 0 1.00038 336.872 329)">ğ‘£</text><text font-family="Cambria Math,Cambria Math_MSFontService,sans-serif" font-weight="400" font-size="11" transform="matrix(1 0 0 1.00038 345.975 329)">â†’</text><text font-family="Cambria Math,Cambria Math_MSFontService,sans-serif" font-weight="400" font-size="11" transform="matrix(1 0 0 1.00038 357.931 329)">ğ‘¤</text><path d="M620 162.396C620 153.372 627.313 146.056 636.334 146.056L727.666 146.056C736.687 146.056 744 153.372 744 162.396L744 227.754C744 236.778 736.687 244.094 727.666 244.094L636.334 244.094C627.313 244.094 620 236.778 620 227.754Z" stroke="#5B9BD5" stroke-width="1.66603" stroke-miterlimit="8" fill="#FFFFFF" fill-rule="evenodd"/><rect x="627.5" y="154.559" width="108" height="23.0088" stroke="#000000" stroke-width="1.33282" stroke-miterlimit="8" fill="#FFC000"/><text font-family="Cambria Math,Cambria Math_MSFontService,sans-serif" font-weight="400" font-size="11" transform="matrix(1 0 0 1.00038 642.525 171)">ğ‘š</text><text font-family="Cambria Math,Cambria Math_MSFontService,sans-serif" font-weight="400" font-size="11" transform="matrix(1 0 0 1.00038 651.521 171)">ğ‘’</text><text font-family="Cambria Math,Cambria Math_MSFontService,sans-serif" font-weight="400" font-size="11" transform="matrix(1 0 0 1.00038 657.086 171)">ğ‘š</text><text font-family="Cambria Math,Cambria Math_MSFontService,sans-serif" font-weight="400" font-size="8" transform="matrix(1 0 0 1.00038 666.082 173)">ğ‘¢</text><text font-family="Cambria Math,Cambria Math_MSFontService,sans-serif" font-weight="400" font-size="8" transform="matrix(1 0 0 1.00038 666.262 165)">ğ‘¡</text><text font-family="Cambria Math,Cambria Math_MSFontService,sans-serif" font-weight="400" font-size="7" transform="matrix(1 0 0 1.00038 669.761 166)">0</text><text font-family="Cambria Math,Cambria Math_MSFontService,sans-serif" font-weight="400" font-size="11" transform="matrix(1 0 0 1.00038 677.311 171)">â†’</text><text fill="#7030A0" font-family="Cambria Math,Cambria Math_MSFontService,sans-serif" font-weight="400" font-size="11" transform="matrix(1 0 0 1.00038 689.267 171)">mem</text><text fill="#7030A0" font-family="Cambria Math,Cambria Math_MSFontService,sans-serif" font-weight="400" font-size="8" transform="matrix(1 0 0 1.00038 712.091 173)">u</text><text fill="#7030A0" font-family="Cambria Math,Cambria Math_MSFontService,sans-serif" font-weight="400" font-size="8" transform="matrix(1 0 0 1.00038 712.091 165)">t</text><text fill="#7030A0" font-family="Cambria Math,Cambria Math_MSFontService,sans-serif" font-weight="400" font-size="7" transform="matrix(1 0 0 1.00038 715.09 167)">2</text><rect x="627.5" y="182.57" width="108" height="24.0092" stroke="#172C51" stroke-width="1.33282" stroke-miterlimit="8" fill="#FFC000"/><text font-family="Cambria Math,Cambria Math_MSFontService,sans-serif" font-weight="400" font-size="11" transform="matrix(1 0 0 1.00038 642.463 198)">ğ‘š</text><text font-family="Cambria Math,Cambria Math_MSFontService,sans-serif" font-weight="400" font-size="11" transform="matrix(1 0 0 1.00038 651.46 198)">ğ‘’</text><text font-family="Cambria Math,Cambria Math_MSFontService,sans-serif" font-weight="400" font-size="11" transform="matrix(1 0 0 1.00038 657.024 198)">ğ‘š</text><text font-family="Cambria Math,Cambria Math_MSFontService,sans-serif" font-weight="400" font-size="8" transform="matrix(1 0 0 1.00038 666.021 200)">ğ‘¢</text><text font-family="Cambria Math,Cambria Math_MSFontService,sans-serif" font-weight="400" font-size="8" transform="matrix(1 0 0 1.00038 666.201 192)">ğ‘¡</text><text font-family="Cambria Math,Cambria Math_MSFontService,sans-serif" font-weight="400" font-size="7" transform="matrix(1 0 0 1.00038 669.699 194)">0</text><text font-family="Cambria Math,Cambria Math_MSFontService,sans-serif" font-weight="400" font-size="11" transform="matrix(1 0 0 1.00038 677.25 198)">â†’</text><text fill="#7030A0" font-family="Cambria Math,Cambria Math_MSFontService,sans-serif" font-weight="400" font-size="11" transform="matrix(1 0 0 1.00038 689.205 198)">mem</text><text fill="#7030A0" font-family="Cambria Math,Cambria Math_MSFontService,sans-serif" font-weight="400" font-size="8" transform="matrix(1 0 0 1.00038 712.03 200)">u</text><text fill="#7030A0" font-family="Cambria Math,Cambria Math_MSFontService,sans-serif" font-weight="400" font-size="8" transform="matrix(1 0 0 1.00038 712.03 192)">t</text><text fill="#7030A0" font-family="Cambria Math,Cambria Math_MSFontService,sans-serif" font-weight="400" font-size="7" transform="matrix(1 0 0 1.00038 715.029 194)">2</text><rect x="627.5" y="211.581" width="108" height="24.0092" stroke="#172C51" stroke-width="1.33282" stroke-miterlimit="8" fill="#FFFF00"/><text font-family="Cambria Math,Cambria Math_MSFontService,sans-serif" font-weight="400" font-size="11" transform="matrix(1 0 0 1.00038 664.859 227)">ğ‘šğ‘’</text><text font-family="Cambria Math,Cambria Math_MSFontService,sans-serif" font-weight="400" font-size="11" transform="matrix(1 0 0 1.00038 679.42 227)">ğ‘š</text><text font-family="Cambria Math,Cambria Math_MSFontService,sans-serif" font-weight="400" font-size="8" transform="matrix(1 0 0 1.00038 688.417 230)">ğ‘¤</text><text font-family="Cambria Math,Cambria Math_MSFontService,sans-serif" font-weight="400" font-size="8" transform="matrix(1 0 0 1.00038 688.597 222)">ğ‘¡</text><text font-family="Cambria Math,Cambria Math_MSFontService,sans-serif" font-weight="400" font-size="7" transform="matrix(1 0 0 1.00038 692.096 223)">1</text><path d="M198 162.396C198 153.372 205.313 146.056 214.334 146.056L305.666 146.056C314.687 146.056 322 153.372 322 162.396L322 227.754C322 236.778 314.687 244.094 305.666 244.094L214.334 244.094C205.313 244.094 198 236.778 198 227.754Z" stroke="#5B9BD5" stroke-width="1.66603" stroke-miterlimit="8" fill="#FFFFFF" fill-rule="evenodd"/><rect x="205.5" y="154.559" width="108" height="23.0088" stroke="#172C51" stroke-width="1.33282" stroke-miterlimit="8" fill="none"/><text font-family="Cambria Math,Cambria Math_MSFontService,sans-serif" font-weight="400" font-size="11" transform="matrix(1 0 0 1.00038 216.362 169)">ğ‘ğ‘’ğ‘–ğ‘”â„ğ‘ğ‘œğ‘Ÿ</text><path d="M58.3202 1.77877C59.3658 2.05449 60.1688 2.64978 60.7291 3.56466 61.2895 4.47953 61.5697 5.58329 61.5697 6.87594 61.5697 8.17216 61.2904 9.27592 60.7318 10.1872 60.1732 11.0985 59.3694 11.692 58.3202 11.9677L58.1913 11.5542C59.0185 11.2784 59.6334 10.7342 60.0363 9.92135 60.4391 9.10852 60.6405 8.07548 60.6405 6.82223 60.6405 5.61194 60.44 4.60665 60.039 3.80636 59.6379 3.00606 59.0167 2.46806 58.1752 2.19234ZM51.3249 1.77877 51.4699 2.19234C50.632 2.46806 50.0117 3.00606 49.6088 3.80636 49.206 4.60665 49.0046 5.61194 49.0046 6.82223 49.0046 8.07548 49.206 9.10852 49.6088 9.92135 50.0117 10.7342 50.6267 11.2784 51.4538 11.5542L51.3249 11.9677C50.2757 11.692 49.4719 11.0985 48.9133 10.1872 48.3547 9.27592 48.0754 8.17216 48.0754 6.87594 48.0754 5.58329 48.3556 4.47953 48.916 3.56466 49.4763 2.64978 50.2793 2.05449 51.3249 1.77877Z" fill-rule="evenodd" transform="matrix(1 0 0 1.00038 214.97 158.519)"/><text font-family="Cambria Math,Cambria Math_MSFontService,sans-serif" font-weight="400" font-size="11" transform="matrix(1 0 0 1.00038 266.503 169)">ğ‘¢</text><text font-family="Cambria Math,Cambria Math_MSFontService,sans-serif" font-weight="400" font-size="11" transform="matrix(1 0 0 1.00038 280.325 169)">=</text><text font-family="Cambria Math,Cambria Math_MSFontService,sans-serif" font-weight="400" font-size="11" transform="matrix(1 0 0 1.00038 291.28 169)">{</text><text fill="#7030A0" font-family="Cambria Math,Cambria Math_MSFontService,sans-serif" font-weight="400" font-size="11" transform="matrix(1 0 0 1.00038 295.445 169)">ğ‘</text><text font-family="Cambria Math,Cambria Math_MSFontService,sans-serif" font-weight="400" font-size="11" transform="matrix(1 0 0 1.00038 301.703 169)">}</text><rect x="205.5" y="182.57" width="108" height="24.0092" stroke="#172C51" stroke-width="1.33282" stroke-miterlimit="8" fill="none"/><rect x="205.5" y="211.581" width="108" height="24.0092" stroke="#172C51" stroke-width="1.33282" stroke-miterlimit="8" fill="none"/><text font-family="Cambria Math,Cambria Math_MSFontService,sans-serif" font-weight="400" font-size="11" transform="matrix(1 0 0 1.00038 216.36 197)">ğ‘ğ‘’ğ‘–ğ‘”â„ğ‘ğ‘œğ‘Ÿ</text><path d="M58.2736 1.77877C59.3191 2.05449 60.1221 2.64978 60.6825 3.56466 61.2429 4.47953 61.5231 5.58329 61.5231 6.87594 61.5231 8.17216 61.2438 9.27592 60.6852 10.1872 60.1266 11.0985 59.3227 11.692 58.2736 11.9677L58.1447 11.5542C58.9718 11.2784 59.5868 10.7342 59.9896 9.92135 60.3925 9.10852 60.5939 8.07548 60.5939 6.82223 60.5939 5.61194 60.3934 4.60665 59.9923 3.80636 59.5913 3.00606 58.97 2.46806 58.1285 2.19234ZM51.5715 1.77877 51.7165 2.19234C50.8786 2.46806 50.2582 3.00606 49.8554 3.80636 49.4526 4.60665 49.2512 5.61194 49.2512 6.82223 49.2512 8.07548 49.4526 9.10852 49.8554 9.92135 50.2582 10.7342 50.8732 11.2784 51.7004 11.5542L51.5715 11.9677C50.5223 11.692 49.7184 11.0985 49.1599 10.1872 48.6013 9.27592 48.322 8.17216 48.322 6.87594 48.322 5.58329 48.6022 4.47953 49.1625 3.56466 49.7229 2.64978 50.5259 2.05449 51.5715 1.77877Z" fill-rule="evenodd" transform="matrix(1 0 0 1.00038 214.721 187.238)"/><text font-family="Cambria Math,Cambria Math_MSFontService,sans-serif" font-weight="400" font-size="11" transform="matrix(1 0 0 1.00038 266.501 197)">ğ‘£</text><text font-family="Cambria Math,Cambria Math_MSFontService,sans-serif" font-weight="400" font-size="11" transform="matrix(1 0 0 1.00038 280.029 197)">=</text><text font-family="Cambria Math,Cambria Math_MSFontService,sans-serif" font-weight="400" font-size="11" transform="matrix(1 0 0 1.00038 290.985 197)">{</text><text fill="#7030A0" font-family="Cambria Math,Cambria Math_MSFontService,sans-serif" font-weight="400" font-size="11" transform="matrix(1 0 0 1.00038 295.15 197)">ğ‘</text><text font-family="Cambria Math,Cambria Math_MSFontService,sans-serif" font-weight="400" font-size="11" transform="matrix(1 0 0 1.00038 301.215 197)">}</text><text font-family="Cambria Math,Cambria Math_MSFontService,sans-serif" font-weight="400" font-size="11" transform="matrix(1 0 0 1.00038 215.361 227)">ğ‘ğ‘’ğ‘–ğ‘”â„ğ‘ğ‘œğ‘Ÿ</text><path d="M59.2732 1.77877C60.3188 2.05449 61.1217 2.64978 61.6821 3.56466 62.2425 4.47953 62.5227 5.58329 62.5227 6.87594 62.5227 8.17216 62.2434 9.27592 61.6848 10.1872 61.1262 11.0985 60.3223 11.692 59.2732 11.9677L59.1443 11.5542C59.9714 11.2784 60.5864 10.7342 60.9892 9.92135 61.3921 9.10852 61.5935 8.07548 61.5935 6.82223 61.5935 5.61194 61.393 4.60665 60.9919 3.80636 60.5909 3.00606 59.9696 2.46806 59.1282 2.19234ZM50.5719 1.77877 50.7169 2.19234C49.879 2.46806 49.2586 3.00606 48.8558 3.80636 48.453 4.60665 48.2515 5.61194 48.2515 6.82223 48.2515 8.07548 48.453 9.10852 48.8558 9.92135 49.2586 10.7342 49.8736 11.2784 50.7008 11.5542L50.5719 11.9677C49.5227 11.692 48.7188 11.0985 48.1602 10.1872 47.6016 9.27592 47.3223 8.17216 47.3223 6.87594 47.3223 5.58329 47.6025 4.47953 48.1629 3.56466 48.7233 2.64978 49.5263 2.05449 50.5719 1.77877Z" fill-rule="evenodd" transform="matrix(1 0 0 1.00038 214.721 216.711)"/><text font-family="Cambria Math,Cambria Math_MSFontService,sans-serif" font-weight="400" font-size="11" transform="matrix(1 0 0 1.00038 265.502 227)">ğ‘¤</text><text font-family="Cambria Math,Cambria Math_MSFontService,sans-serif" font-weight="400" font-size="11" transform="matrix(1 0 0 1.00038 281.029 227)">=</text><text font-family="Cambria Math,Cambria Math_MSFontService,sans-serif" font-weight="400" font-size="11" transform="matrix(1 0 0 1.00038 291.985 227)">{</text><text font-family="Cambria Math,Cambria Math_MSFontService,sans-serif" font-weight="400" font-size="11" transform="matrix(1 0 0 1.00038 296.15 227)">ğ‘</text><text font-family="Cambria Math,Cambria Math_MSFontService,sans-serif" font-weight="400" font-size="11" transform="matrix(1 0 0 1.00038 302.214 227)">}</text><text font-family="Times New Roman,Times New Roman_MSFontService,sans-serif" font-weight="400" font-size="13" transform="matrix(1 0 0 1.00038 74.7573 78)">Training: Last Batch Message</text><text font-family="Times New Roman,Times New Roman_MSFontService,sans-serif" font-weight="400" font-size="13" transform="matrix(1 0 0 1.00038 63.9792 329)">Inference: Current Batch Message</text><path d="M86.167 142.924 86.167 85.1996 276.781 85.1996 276.781 86.8663 87 86.8663 87.833 86.033 87.833 142.924ZM275.448 82.033 283.445 86.033 275.448 90.033Z" fill="#7030A0"/><path d="M0-0.833014 66.48-0.833014 66.48 189.781 64.8139 189.781 64.8139 0 65.6469 0.833014 0 0.833014ZM69.6454 188.448 65.6469 196.445 61.6485 188.448Z" fill="#C00000" transform="matrix(1.83697e-16 1.00038 1 -1.83767e-16 87 246.094)"/><path d="M407 85.1996 682.548 85.1996 682.548 138.663 680.882 138.663 680.882 86.033 681.715 86.8663 407 86.8663ZM685.714 137.329 681.715 145.329 677.717 137.329Z" fill="#7030A0"/><path d="M0-0.833014 275.548-0.833014 275.548 61.3869 273.882 61.3869 273.882 0 274.715 0.833014 0 0.833014ZM278.714 60.054 274.715 68.051 270.717 60.054Z" fill="#C00000" transform="matrix(1 0 0 -1.00038 407 312.171)"/><text font-family="Times New Roman,Times New Roman_MSFontService,sans-serif" font-weight="400" font-size="13" transform="matrix(1 0 0 1.00038 219.196 133)">Update Neighbor</text><text font-family="Times New Roman,Times New Roman_MSFontService,sans-serif" font-weight="400" font-size="13" transform="matrix(1 0 0 1.00038 211.685 271)">Retrieve Neighbor</text><path d="M0-0.833014 24.5018-0.833014 24.5018 52.6094 22.8358 52.6094 22.8358 0 23.6688 0.833014 0 0.833014ZM27.6673 51.2766 23.6688 59.2735 19.6704 51.2766Z" fill="#7030A0" transform="matrix(-1 1.22512e-16 1.22465e-16 1.00038 283.669 86.033)"/><text font-family="Times New Roman,Times New Roman_MSFontService,sans-serif" font-weight="400" font-size="13" transform="matrix(1 0 0 1.00038 641.056 127)">Update Mem</text><path d="M283.669 313.004 259.167 313.004 259.167 250.76 260.833 250.76 260.833 312.171 260 311.337 283.669 311.337ZM256.002 252.094 260 244.094 263.998 252.094Z" fill="#C00000"/><text font-family="Times New Roman,Times New Roman_MSFontService,sans-serif" font-weight="400" font-size="13" transform="matrix(1 0 0 1.00038 634.691 278)">Retrieve Mem</text><path d="M322 194.241 385.165 194.242 385.165 195.908 322 195.908ZM383.832 191.075 391.829 195.075 383.832 199.075Z" fill="#C00000"/><path d="M392 162.396C392 153.372 399.313 146.056 408.334 146.056L498.666 146.056C507.687 146.056 515 153.372 515 162.396L515 227.754C515 236.778 507.687 244.094 498.666 244.094L408.334 244.094C399.313 244.094 392 236.778 392 227.754Z" stroke="#5B9BD5" stroke-width="1.66603" stroke-miterlimit="8" fill="#FFFFFF" fill-rule="evenodd"/><rect x="400.5" y="164.563" width="107" height="23.0088" stroke="#172C51" stroke-width="1.33282" stroke-miterlimit="8" fill="none"/><text font-family="Cambria Math,Cambria Math_MSFontService,sans-serif" font-weight="400" font-size="11" transform="matrix(1 0 0 1.00038 419.455 178)">ğ¶ğ‘</text><path d="M51.8494 1.77877C52.8949 2.05449 53.6979 2.64978 54.2583 3.56466 54.8187 4.47953 55.0989 5.58329 55.0989 6.87594 55.0989 8.17216 54.8196 9.27592 54.261 10.1872 53.7024 11.0985 52.8985 11.692 51.8494 11.9677L51.7205 11.5542C52.5476 11.2784 53.1626 10.7342 53.5654 9.92135 53.9683 9.10852 54.1697 8.07548 54.1697 6.82223 54.1697 5.61194 53.9692 4.60665 53.5681 3.80636 53.1671 3.00606 52.5458 2.46806 51.7043 2.19234ZM32.7654 1.77877 32.9104 2.19234C32.0725 2.46806 31.4521 3.00606 31.0493 3.80636 30.6465 4.60665 30.445 5.61194 30.445 6.82223 30.445 8.07548 30.6465 9.10852 31.0493 9.92135 31.4521 10.7342 32.0671 11.2784 32.8943 11.5542L32.7654 11.9677C31.7162 11.692 30.9123 11.0985 30.3537 10.1872 29.7951 9.27592 29.5158 8.17216 29.5158 6.87594 29.5158 5.58329 29.796 4.47953 30.3564 3.56466 30.9168 2.64978 31.7198 2.05449 32.7654 1.77877Z" fill-rule="evenodd" transform="matrix(1 0 0 1.00038 405.327 168.065)"/><text font-family="Cambria Math,Cambria Math_MSFontService,sans-serif" font-weight="400" font-size="11" transform="matrix(1 0 0 1.00038 438.301 178)">ğ‘¢</text><text font-family="Cambria Math,Cambria Math_MSFontService,sans-serif" font-weight="400" font-size="11" transform="matrix(1 0 0 1.00038 444.739 178)">,</text><text font-family="Cambria Math,Cambria Math_MSFontService,sans-serif" font-weight="400" font-size="11" transform="matrix(1 0 0 1.00038 448.684 178)">ğ‘¤</text><text font-family="Cambria Math,Cambria Math_MSFontService,sans-serif" font-weight="400" font-size="11" transform="matrix(1 0 0 1.00038 464.211 178)">=</text><text font-family="Cambria Math,Cambria Math_MSFontService,sans-serif" font-weight="400" font-size="11" transform="matrix(1 0 0 1.00038 475.167 178)">{</text><text font-family="Cambria Math,Cambria Math_MSFontService,sans-serif" font-weight="400" font-size="11" transform="matrix(1 0 0 1.00038 479.332 178)">}</text><rect x="400.5" y="203.578" width="107" height="23.0088" stroke="#172C51" stroke-width="1.33282" stroke-miterlimit="8" fill="none"/><text font-family="Cambria Math,Cambria Math_MSFontService,sans-serif" font-weight="400" font-size="11" transform="matrix(1 0 0 1.00038 418.204 218)">ğ¶ğ‘</text><path d="M48.6706 1.77877C49.7162 2.05449 50.5191 2.64978 51.0795 3.56466 51.6399 4.47953 51.9201 5.58329 51.9201 6.87594 51.9201 8.17216 51.6408 9.27592 51.0822 10.1872 50.5236 11.0985 49.7197 11.692 48.6706 11.9677L48.5417 11.5542C49.3688 11.2784 49.9838 10.7342 50.3866 9.92135 50.7895 9.10852 50.9909 8.07548 50.9909 6.82223 50.9909 5.61194 50.7904 4.60665 50.3893 3.80636 49.9883 3.00606 49.367 2.46806 48.5256 2.19234ZM29.8798 1.77877 30.0248 2.19234C29.1869 2.46806 28.5666 3.00606 28.1637 3.80636 27.7609 4.60665 27.5595 5.61194 27.5595 6.82223 27.5595 8.07548 27.7609 9.10852 28.1637 9.92135 28.5666 10.7342 29.1816 11.2784 30.0087 11.5542L29.8798 11.9677C28.8306 11.692 28.0268 11.0985 27.4682 10.1872 26.9096 9.27592 26.6303 8.17216 26.6303 6.87594 26.6303 5.58329 26.9105 4.47953 27.4709 3.56466 28.0312 2.64978 28.8342 2.05449 29.8798 1.77877Z" fill-rule="evenodd" transform="matrix(1 0 0 1.00038 406.962 208.292)"/><text font-family="Cambria Math,Cambria Math_MSFontService,sans-serif" font-weight="400" font-size="11" transform="matrix(1 0 0 1.00038 437.05 218)">ğ‘£</text><text font-family="Cambria Math,Cambria Math_MSFontService,sans-serif" font-weight="400" font-size="11" transform="matrix(1 0 0 1.00038 443.194 218)">,</text><text font-family="Cambria Math,Cambria Math_MSFontService,sans-serif" font-weight="400" font-size="11" transform="matrix(1 0 0 1.00038 447.139 218)">ğ‘¤</text><text font-family="Cambria Math,Cambria Math_MSFontService,sans-serif" font-weight="400" font-size="11" transform="matrix(1 0 0 1.00038 462.667 218)">=</text><text font-family="Cambria Math,Cambria Math_MSFontService,sans-serif" font-weight="400" font-size="11" transform="matrix(1 0 0 1.00038 473.623 218)">{</text><text fill="#FF0000" font-family="Cambria Math,Cambria Math_MSFontService,sans-serif" font-weight="400" font-size="11" transform="matrix(1 0 0 1.00038 477.788 218)">ğ‘</text><text font-family="Cambria Math,Cambria Math_MSFontService,sans-serif" font-weight="400" font-size="11" transform="matrix(1 0 0 1.00038 483.852 218)">}</text><text font-family="Times New Roman,Times New Roman_MSFontService,sans-serif" font-weight="400" font-size="13" transform="matrix(1 0 0 1.00038 327.046 186)">Extract CN</text><text font-family="Times New Roman,Times New Roman_MSFontService,sans-serif" font-weight="400" font-size="13" transform="matrix(1 0 0 1.00038 519.181 184)">Retrieve CN Mem</text><path d="M515 194.241 613.124 194.242 613.124 195.908 515 195.908ZM611.792 191.075 619.789 195.075 611.792 199.075Z" fill="#C00000"/><path d="M744 47.1851C744 38.2529 751.238 31.0119 760.167 31.0119L851.833 31.0119C860.762 31.0119 868 38.2529 868 47.1851L868 111.876C868 120.808 860.762 128.049 851.833 128.049L760.167 128.049C751.238 128.049 744 120.808 744 111.876Z" stroke="#5B9BD5" stroke-width="1.66603" stroke-miterlimit="8" fill="#FFFFFF" fill-rule="evenodd"/><rect x="751.5" y="67.5259" width="108" height="23.0088" stroke="#000000" stroke-width="1.33282" stroke-miterlimit="8" fill="#FFC000"/><text font-family="Cambria Math,Cambria Math_MSFontService,sans-serif" font-weight="400" font-size="11" transform="matrix(1 0 0 1.00038 767.328 82)">(</text><text font-family="Cambria Math,Cambria Math_MSFontService,sans-serif" font-weight="400" font-size="11" transform="matrix(1 0 0 1.00038 771.826 82)">ğ‘š</text><text font-family="Cambria Math,Cambria Math_MSFontService,sans-serif" font-weight="400" font-size="11" transform="matrix(1 0 0 1.00038 780.823 82)">ğ‘’</text><text font-family="Cambria Math,Cambria Math_MSFontService,sans-serif" font-weight="400" font-size="11" transform="matrix(1 0 0 1.00038 786.387 82)">ğ‘š</text><text font-family="Cambria Math,Cambria Math_MSFontService,sans-serif" font-weight="400" font-size="8" transform="matrix(1 0 0 1.00038 795.384 84)">ğ‘¢</text><text font-family="Cambria Math,Cambria Math_MSFontService,sans-serif" font-weight="400" font-size="8" transform="matrix(1 0 0 1.00038 795.564 76)">ğ‘¡</text><text font-family="Cambria Math,Cambria Math_MSFontService,sans-serif" font-weight="400" font-size="7" transform="matrix(1 0 0 1.00038 799.063 78)">2</text><text font-family="Cambria Math,Cambria Math_MSFontService,sans-serif" font-weight="400" font-size="11" transform="matrix(1 0 0 1.00038 803.654 82)">,</text><text font-family="Cambria Math,Cambria Math_MSFontService,sans-serif" font-weight="400" font-size="11" transform="matrix(1 0 0 1.00038 807.599 82)">mem</text><text font-family="Cambria Math,Cambria Math_MSFontService,sans-serif" font-weight="400" font-size="8" transform="matrix(1 0 0 1.00038 830.424 84)">w</text><text font-family="Cambria Math,Cambria Math_MSFontService,sans-serif" font-weight="400" font-size="8" transform="matrix(1 0 0 1.00038 830.424 76)">t</text><text font-family="Cambria Math,Cambria Math_MSFontService,sans-serif" font-weight="400" font-size="7" transform="matrix(1 0 0 1.00038 833.423 78)">1</text><text font-family="Cambria Math,Cambria Math_MSFontService,sans-serif" font-weight="400" font-size="11" transform="matrix(1 0 0 1.00038 838.014 82)">)</text><rect x="751.5" y="95.5366" width="108" height="23.0088" stroke="#172C51" stroke-width="1.33282" stroke-miterlimit="8" fill="#FFFF00"/><text fill="#FF0000" font-family="Cambria Math,Cambria Math_MSFontService,sans-serif" font-weight="400" font-size="11" transform="matrix(1 0 0 1.00038 784.714 110)">{</text><text fill="#FF0000" font-family="Cambria Math,Cambria Math_MSFontService,sans-serif" font-weight="400" font-size="11" transform="matrix(1 0 0 1.00038 788.88 110)">ğ‘š</text><text fill="#FF0000" font-family="Cambria Math,Cambria Math_MSFontService,sans-serif" font-weight="400" font-size="11" transform="matrix(1 0 0 1.00038 797.876 110)">ğ‘’</text><text fill="#FF0000" font-family="Cambria Math,Cambria Math_MSFontService,sans-serif" font-weight="400" font-size="11" transform="matrix(1 0 0 1.00038 803.441 110)">ğ‘š</text><text fill="#FF0000" font-family="Cambria Math,Cambria Math_MSFontService,sans-serif" font-weight="400" font-size="8" transform="matrix(1 0 0 1.00038 812.437 114)">ğ‘</text><text fill="#FF0000" font-family="Cambria Math,Cambria Math_MSFontService,sans-serif" font-weight="400" font-size="8" transform="matrix(1 0 0 1.00038 812.617 105)">ğ‘¡</text><text fill="#FF0000" font-family="Cambria Math,Cambria Math_MSFontService,sans-serif" font-weight="400" font-size="7" transform="matrix(1 0 0 1.00038 816.116 106)">2</text><text fill="#FF0000" font-family="Cambria Math,Cambria Math_MSFontService,sans-serif" font-weight="400" font-size="11" transform="matrix(1 0 0 1.00038 820.707 110)">}</text><text font-family="Cambria Math,Cambria Math_MSFontService,sans-serif" font-weight="400" font-size="11" transform="matrix(1 0 0 1.00038 781.139 53)">ğ‘Ÿğ‘’ğ‘ğ‘Ÿ</text><text font-family="Cambria Math,Cambria Math_MSFontService,sans-serif" font-weight="400" font-size="11" transform="matrix(1 0 0 1.00038 802.698 53)">(</text><text font-family="Cambria Math,Cambria Math_MSFontService,sans-serif" font-weight="400" font-size="11" transform="matrix(1 0 0 1.00038 807.196 53)">ğ‘¢</text><text font-family="Cambria Math,Cambria Math_MSFontService,sans-serif" font-weight="400" font-size="11" transform="matrix(1 0 0 1.00038 813.634 53)">,</text><text font-family="Cambria Math,Cambria Math_MSFontService,sans-serif" font-weight="400" font-size="11" transform="matrix(1 0 0 1.00038 817.579 53)">ğ‘¤</text><text font-family="Cambria Math,Cambria Math_MSFontService,sans-serif" font-weight="400" font-size="11" transform="matrix(1 0 0 1.00038 825.722 53)">)</text><path d="M744 262.434C744 253.41 751.313 246.094 760.334 246.094L851.666 246.094C860.687 246.094 868 253.41 868 262.434L868 327.792C868 336.816 860.687 344.132 851.666 344.132L760.334 344.132C751.313 344.132 744 336.816 744 327.792Z" stroke="#5B9BD5" stroke-width="1.66603" stroke-miterlimit="8" fill="#FFFFFF" fill-rule="evenodd"/><rect x="751.5" y="282.608" width="108" height="23.0088" stroke="#000000" stroke-width="1.33282" stroke-miterlimit="8" fill="#FFC000"/><text font-family="Cambria Math,Cambria Math_MSFontService,sans-serif" font-weight="400" font-size="11" transform="matrix(1 0 0 1.00038 767.328 297)">(</text><text font-family="Cambria Math,Cambria Math_MSFontService,sans-serif" font-weight="400" font-size="11" transform="matrix(1 0 0 1.00038 771.826 297)">ğ‘š</text><text font-family="Cambria Math,Cambria Math_MSFontService,sans-serif" font-weight="400" font-size="11" transform="matrix(1 0 0 1.00038 780.823 297)">ğ‘’</text><text font-family="Cambria Math,Cambria Math_MSFontService,sans-serif" font-weight="400" font-size="11" transform="matrix(1 0 0 1.00038 786.387 297)">ğ‘š</text><text font-family="Cambria Math,Cambria Math_MSFontService,sans-serif" font-weight="400" font-size="8" transform="matrix(1 0 0 1.00038 795.384 300)">ğ‘£</text><text font-family="Cambria Math,Cambria Math_MSFontService,sans-serif" font-weight="400" font-size="8" transform="matrix(1 0 0 1.00038 795.564 292)">ğ‘¡</text><text font-family="Cambria Math,Cambria Math_MSFontService,sans-serif" font-weight="400" font-size="7" transform="matrix(1 0 0 1.00038 799.063 293)">2</text><text font-family="Cambria Math,Cambria Math_MSFontService,sans-serif" font-weight="400" font-size="11" transform="matrix(1 0 0 1.00038 803.654 297)">,</text><text font-family="Cambria Math,Cambria Math_MSFontService,sans-serif" font-weight="400" font-size="11" transform="matrix(1 0 0 1.00038 807.599 297)">mem</text><text font-family="Cambria Math,Cambria Math_MSFontService,sans-serif" font-weight="400" font-size="8" transform="matrix(1 0 0 1.00038 830.424 300)">w</text><text font-family="Cambria Math,Cambria Math_MSFontService,sans-serif" font-weight="400" font-size="8" transform="matrix(1 0 0 1.00038 830.424 292)">t</text><text font-family="Cambria Math,Cambria Math_MSFontService,sans-serif" font-weight="400" font-size="7" transform="matrix(1 0 0 1.00038 833.423 293)">1</text><text font-family="Cambria Math,Cambria Math_MSFontService,sans-serif" font-weight="400" font-size="11" transform="matrix(1 0 0 1.00038 838.014 297)">)</text><rect x="751.5" y="311.62" width="108" height="23.0088" stroke="#172C51" stroke-width="1.33282" stroke-miterlimit="8" fill="#FFFF00"/><text fill="#FF40FF" font-family="Cambria Math,Cambria Math_MSFontService,sans-serif" font-weight="400" font-size="11" transform="matrix(1 0 0 1.00038 800.628 325)">{</text><text fill="#FF40FF" font-family="Cambria Math,Cambria Math_MSFontService,sans-serif" font-weight="400" font-size="11" transform="matrix(1 0 0 1.00038 804.793 325)">}</text><text font-family="Cambria Math,Cambria Math_MSFontService,sans-serif" font-weight="400" font-size="11" transform="matrix(1 0 0 1.00038 781.286 268)">ğ‘Ÿğ‘’ğ‘ğ‘Ÿ</text><text font-family="Cambria Math,Cambria Math_MSFontService,sans-serif" font-weight="400" font-size="11" transform="matrix(1 0 0 1.00038 802.844 268)">(</text><text font-family="Cambria Math,Cambria Math_MSFontService,sans-serif" font-weight="400" font-size="11" transform="matrix(1 0 0 1.00038 807.343 268)">ğ‘£</text><text font-family="Cambria Math,Cambria Math_MSFontService,sans-serif" font-weight="400" font-size="11" transform="matrix(1 0 0 1.00038 813.487 268)">,</text><text font-family="Cambria Math,Cambria Math_MSFontService,sans-serif" font-weight="400" font-size="11" transform="matrix(1 0 0 1.00038 817.432 268)">ğ‘¤</text><text font-family="Cambria Math,Cambria Math_MSFontService,sans-serif" font-weight="400" font-size="11" transform="matrix(1 0 0 1.00038 825.576 268)">)</text><path d="M0-0.833014 62.7018-0.833014 62.7018 60.0625 61.0357 60.0625 61.0357 0 61.8688 0.833014 0 0.833014ZM65.8672 58.7297 61.8688 66.7266 57.8703 58.7297Z" fill="#C00000" transform="matrix(1 0 0 -1.00038 744 194.801)"/><path d="M744 194.241 806.702 194.241 806.702 239.978 805.036 239.978 805.036 195.075 805.869 195.908 744 195.908ZM809.867 238.645 805.869 246.645 801.87 238.645Z" fill="#C00000"/><text font-family="Times New Roman,Times New Roman_MSFontService,sans-serif" font-weight="400" font-size="13" transform="matrix(1 0 0 1.00038 746.581 188)">Prediction</text></g></svg>